# xmcd
#
# Track frame offsets:
#	150
#	15924
#	31856
#	48387
#	64282
#	80738
#	94998
#	112050
#	131207
#	150225
#
# Disc length: 2184 seconds
#
# Revision: 1
# Processed by: cddbd v1.5.2PL0 Copyright (c) Steve Scherf et al.
# Submitted via: audiograbber 1.83.01
#
DISCID=7d08860a
DTITLE=Country Sweethearts Award Series - Fh-7122
DYEAR=1900
DGENRE=Karaoke
TTITLE0=Faith Hill - This Kiss
TTITLE1=Lorrie Morgan - Watch Me
TTITLE2=Martina Mcbride - Wild Angels
TTITLE3=Mary Chapin Carpenter - I Feel Lucky
TTITLE4=Reba Mcetire - For My Broken Heart
TTITLE5=Terri Clark - Better Things To Do
TTITLE6=Mindy Mccready - Maybe Maybe Not
TTITLE7=Dixie Chicks - Cold Day In July
TTITLE8=Carolyn Dawn Johnson - Georgia
TTITLE9=Wynonna Judd - When Love Starts Talking
EXTD=
EXTT0=
EXTT1=
EXTT2=
EXTT3=
EXTT4=
EXTT5=
EXTT6=
EXTT7=
EXTT8=
EXTT9=
PLAYORDER=
